<svg width="30" height="24" viewBox="0 0 30 24" fill="none" xmlns="http://www.w3.org/2000/svg">
<path fill-rule="evenodd" clip-rule="evenodd" d="M20.0761 1.01639C19.1831 0.516988 18.1858 0.184325 17.1275 0.0571467C16.652 0 16.1013 0 15 0C13.8987 0 13.3481 0 12.8725 0.0571467C9.53566 0.458144 6.80522 2.90201 6.03818 6.17419C5.92886 6.64051 5.86805 7.1878 5.74644 8.28236L5.32677 12.0594C5.19345 13.2592 5.1268 13.8591 4.97309 14.4371C4.8831 14.7755 4.77099 15.1077 4.63748 15.4314C4.40944 15.9843 4.09889 16.5019 3.47779 17.5371L1.81743 20.3043C1.01167 21.6473 0.608793 22.3187 0.896023 22.826C1.18325 23.3333 1.96631 23.3333 3.53241 23.3333H26.4677C28.0338 23.3333 28.8168 23.3333 29.104 22.826C29.3913 22.3187 28.9884 21.6473 28.1826 20.3043L26.5223 17.5371L26.5223 17.537C25.9012 16.5019 25.5906 15.9843 25.3626 15.4314C25.2291 15.1077 25.117 14.7755 25.027 14.4371C24.8733 13.8591 24.8066 13.2592 24.6733 12.0594L24.5912 11.3203C21.2839 11.1096 18.6667 8.36045 18.6667 5C18.6667 3.49059 19.1947 2.1045 20.0761 1.01639ZM22.3746 2.94594C23.1263 3.86789 23.6783 4.96443 23.9619 6.17419C24.0701 6.63569 24.1307 7.17649 24.2499 8.24858C22.7702 7.90828 21.6667 6.583 21.6667 5C21.6667 4.22513 21.9311 3.51201 22.3746 2.94594Z" fill="#222222"/>
</svg>
