<svg width="30" height="30" viewBox="0 0 30 30" fill="none" xmlns="http://www.w3.org/2000/svg">
<path fill-rule="evenodd" clip-rule="evenodd" d="M10.2778 7.5C8.28343 7.5 6.66668 9.11675 6.66668 11.1111C6.66668 13.1055 8.28344 14.7222 10.2778 14.7222C12.2722 14.7222 13.8889 13.1055 13.8889 11.1111C13.8889 9.11675 12.2721 7.5 10.2778 7.5ZM14.3321 15.6838C15.5938 14.5643 16.3889 12.9305 16.3889 11.1111C16.3889 7.73604 13.6529 5 10.2778 5C6.90271 5 4.16668 7.73604 4.16668 11.1111C4.16668 12.9306 4.96181 14.5643 6.22353 15.6838C5.37006 16.1127 4.58231 16.6783 3.89421 17.3664C3.58905 17.6716 3.30794 17.9964 3.05215 18.3379C2.47886 19.1032 2.20891 19.9563 2.25644 20.8171C2.30325 21.6648 2.65191 22.4236 3.15036 23.0363C4.13122 24.2419 5.77587 25 7.50004 25L13.0556 25C14.7798 25 16.4244 24.2419 17.4053 23.0363C17.9037 22.4236 18.2524 21.6648 18.2992 20.8171C18.3467 19.9563 18.0768 19.1032 17.5035 18.3379C17.2477 17.9964 16.9666 17.6716 16.6614 17.3664C15.9733 16.6783 15.1856 16.1127 14.3321 15.6838ZM10.2778 17.2222C8.54654 17.2222 6.88617 17.91 5.66198 19.1342C5.44124 19.3549 5.23799 19.5898 5.05308 19.8366C4.79862 20.1763 4.74046 20.4587 4.75264 20.6793C4.76555 20.9131 4.86445 21.1818 5.08961 21.4586C5.55598 22.0318 6.46278 22.5 7.50004 22.5L13.0556 22.5C14.0929 22.5 14.9997 22.0318 15.466 21.4586C15.6912 21.1818 15.7901 20.9131 15.803 20.6793C15.8152 20.4587 15.757 20.1763 15.5025 19.8366C15.3176 19.5898 15.1144 19.3549 14.8936 19.1342C13.6695 17.91 12.0091 17.2222 10.2778 17.2222ZM27.1339 11.6161C27.6221 12.1043 27.6221 12.8957 27.1339 13.3839L23.3839 17.1339C22.8958 17.622 22.1043 17.622 21.6161 17.1339L19.7411 15.2589C19.253 14.7707 19.253 13.9793 19.7411 13.4911C20.2293 13.003 21.0208 13.003 21.5089 13.4911L22.5 14.4822L25.3661 11.6161C25.8543 11.128 26.6458 11.128 27.1339 11.6161Z" fill="black"/>
</svg>
