<svg width="15" height="15" viewBox="0 0 15 15" fill="none" xmlns="http://www.w3.org/2000/svg">
<path d="M8.35876 0.315118C7.87689 -0.105039 7.12311 -0.105039 6.64124 0.315118L0.58685 5.59414C0.21225 5.92077 0 6.37522 0 6.85065V13.2708C0 14.2258 0.839463 15 1.875 15H3.75C4.78554 15 5.625 14.2258 5.625 13.2708V10.3888C5.625 10.0705 5.90483 9.81248 6.25 9.81248H8.75C9.09517 9.81248 9.375 10.0705 9.375 10.3888V13.2708C9.375 14.2258 10.2145 15 11.25 15H13.125C14.1605 15 15 14.2258 15 13.2708V6.85065C15 6.37522 14.7878 5.92077 14.4131 5.59414L8.35876 0.315118Z" fill="#EEE4E4"/>
</svg>
