<svg width="34" height="34" viewBox="0 0 34 34" fill="none" xmlns="http://www.w3.org/2000/svg">
<path fill-rule="evenodd" clip-rule="evenodd" d="M28.3333 15.5834C28.3333 11.604 28.3333 9.61439 27.3783 8.18512C26.9649 7.56638 26.4336 7.03512 25.8149 6.62169C24.3856 5.66669 22.396 5.66669 18.4167 5.66669H15.5833C11.604 5.66669 9.61436 5.66669 8.18509 6.62169C7.56635 7.03512 7.03509 7.56638 6.62166 8.18512C5.66666 9.61439 5.66666 11.604 5.66666 15.5834C5.66666 19.5627 5.66666 21.5523 6.62166 22.9816C7.03509 23.6003 7.56635 24.1316 8.18509 24.545C9.43367 25.3793 11.1099 25.4848 14.1667 25.4981V25.5L15.7329 28.6325C16.255 29.6766 17.745 29.6766 18.2671 28.6325L19.8333 25.5V25.4981C22.8901 25.4848 24.5663 25.3793 25.8149 24.545C26.4336 24.1316 26.9649 23.6003 27.3783 22.9816C28.3333 21.5523 28.3333 19.5627 28.3333 15.5834ZM12.75 11.75C12.1977 11.75 11.75 12.1977 11.75 12.75C11.75 13.3023 12.1977 13.75 12.75 13.75H21.25C21.8023 13.75 22.25 13.3023 22.25 12.75C22.25 12.1977 21.8023 11.75 21.25 11.75H12.75ZM12.75 17.4167C12.1977 17.4167 11.75 17.8644 11.75 18.4167C11.75 18.969 12.1977 19.4167 12.75 19.4167H17C17.5523 19.4167 18 18.969 18 18.4167C18 17.8644 17.5523 17.4167 17 17.4167H12.75Z" fill="#222222"/>
</svg>
