<svg width="34" height="34" viewBox="0 0 34 34" fill="none" xmlns="http://www.w3.org/2000/svg">
<path fill-rule="evenodd" clip-rule="evenodd" d="M28.3333 15.5833C28.3333 11.604 28.3333 9.61433 27.3783 8.18506C26.9649 7.56632 26.4336 7.03506 25.8149 6.62163C24.3856 5.66663 22.396 5.66663 18.4167 5.66663H15.5833C11.604 5.66663 9.61436 5.66663 8.18509 6.62163C7.56635 7.03506 7.03509 7.56632 6.62166 8.18506C5.66666 9.61433 5.66666 11.604 5.66666 15.5833C5.66666 19.5626 5.66666 21.5523 6.62166 22.9815C7.03509 23.6003 7.56635 24.1315 8.18509 24.545C9.43367 25.3792 11.1099 25.4847 14.1667 25.498V25.5L15.7329 28.6324C16.255 29.6766 17.745 29.6766 18.2671 28.6324L19.8333 25.5V25.498C22.8901 25.4847 24.5663 25.3792 25.8149 24.545C26.4336 24.1315 26.9649 23.6003 27.3783 22.9815C28.3333 21.5523 28.3333 19.5626 28.3333 15.5833ZM12.75 11.75C12.1977 11.75 11.75 12.1977 11.75 12.75C11.75 13.3022 12.1977 13.75 12.75 13.75H21.25C21.8023 13.75 22.25 13.3022 22.25 12.75C22.25 12.1977 21.8023 11.75 21.25 11.75H12.75ZM12.75 17.4166C12.1977 17.4166 11.75 17.8643 11.75 18.4166C11.75 18.9689 12.1977 19.4166 12.75 19.4166H17C17.5523 19.4166 18 18.9689 18 18.4166C18 17.8643 17.5523 17.4166 17 17.4166H12.75Z" fill="#222222"/>
</svg>
