<svg width="24" height="25" viewBox="0 0 24 25" fill="none" xmlns="http://www.w3.org/2000/svg">
<path fill-rule="evenodd" clip-rule="evenodd" d="M23.3333 10.5834C23.3333 6.60404 23.3333 4.61439 22.3783 3.18512C21.9649 2.56638 21.4336 2.03512 20.8149 1.62169C19.3856 0.666687 17.396 0.666687 13.4167 0.666687H10.5833C6.60401 0.666687 4.61436 0.666687 3.18509 1.62169C2.56635 2.03512 2.03509 2.56638 1.62166 3.18512C0.666656 4.61439 0.666656 6.60404 0.666656 10.5834C0.666656 14.5627 0.666656 16.5523 1.62166 17.9816C2.03509 18.6003 2.56635 19.1316 3.18509 19.545C4.43367 20.3793 6.10991 20.4848 9.16666 20.4981V20.5L10.7329 23.6325C11.255 24.6766 12.745 24.6766 13.2671 23.6325L14.8333 20.5V20.4981C17.8901 20.4848 19.5663 20.3793 20.8149 19.545C21.4336 19.1316 21.9649 18.6003 22.3783 17.9816C23.3333 16.5523 23.3333 14.5627 23.3333 10.5834ZM7.74999 6.75002C7.19771 6.75002 6.74999 7.19774 6.74999 7.75002C6.74999 8.30231 7.19771 8.75002 7.74999 8.75002H16.25C16.8023 8.75002 17.25 8.30231 17.25 7.75002C17.25 7.19774 16.8023 6.75002 16.25 6.75002H7.74999ZM7.74999 12.4167C7.19771 12.4167 6.74999 12.8644 6.74999 13.4167C6.74999 13.969 7.19771 14.4167 7.74999 14.4167H12C12.5523 14.4167 13 13.969 13 13.4167C13 12.8644 12.5523 12.4167 12 12.4167H7.74999Z" fill="#222222"/>
</svg>
