<svg width="30" height="30" viewBox="0 0 30 30" fill="none" xmlns="http://www.w3.org/2000/svg">
<path fill-rule="evenodd" clip-rule="evenodd" d="M10.2777 7.5C8.28336 7.5 6.66661 9.11675 6.66661 11.1111C6.66661 13.1055 8.28338 14.7222 10.2778 14.7222C12.2721 14.7222 13.8888 13.1055 13.8888 11.1111C13.8888 9.11675 12.2721 7.5 10.2777 7.5ZM14.332 15.6838C15.5937 14.5643 16.3888 12.9305 16.3888 11.1111C16.3888 7.73604 13.6528 5 10.2777 5C6.90265 5 4.16661 7.73604 4.16661 11.1111C4.16661 12.9306 4.96174 14.5643 6.22347 15.6838C5.37 16.1127 4.58225 16.6783 3.89415 17.3664C3.58899 17.6716 3.30788 17.9964 3.05209 18.3379C2.4788 19.1032 2.20885 19.9563 2.25638 20.8171C2.30319 21.6648 2.65185 22.4236 3.15029 23.0363C4.13116 24.2419 5.77581 25 7.49997 25L13.0555 25C14.7797 25 16.4243 24.2419 17.4052 23.0363C17.9037 22.4236 18.2523 21.6648 18.2991 20.8171C18.3467 19.9563 18.0767 19.1032 17.5034 18.3379C17.2476 17.9964 16.9665 17.6716 16.6614 17.3664C15.9732 16.6783 15.1855 16.1127 14.332 15.6838ZM10.2778 17.2222C8.54648 17.2222 6.88611 17.91 5.66192 19.1342C5.44118 19.3549 5.23793 19.5898 5.05302 19.8366C4.79856 20.1763 4.7404 20.4587 4.75258 20.6793C4.76549 20.9131 4.86439 21.1818 5.08955 21.4586C5.55592 22.0318 6.46272 22.5 7.49997 22.5L13.0555 22.5C14.0928 22.5 14.9996 22.0318 15.466 21.4586C15.6911 21.1818 15.79 20.9131 15.8029 20.6793C15.8151 20.4587 15.7569 20.1763 15.5025 19.8366C15.3176 19.5898 15.1143 19.3549 14.8936 19.1342C13.6694 17.91 12.009 17.2222 10.2778 17.2222ZM27.1339 11.6161C27.622 12.1043 27.622 12.8957 27.1339 13.3839L23.3839 17.1339C22.8957 17.622 22.1042 17.622 21.6161 17.1339L19.7411 15.2589C19.2529 14.7707 19.2529 13.9793 19.7411 13.4911C20.2292 13.003 21.0207 13.003 21.5089 13.4911L22.5 14.4822L25.3661 11.6161C25.8542 11.128 26.6457 11.128 27.1339 11.6161Z" fill="black"/>
</svg>
