<svg width="30" height="30" viewBox="0 0 30 30" fill="none" xmlns="http://www.w3.org/2000/svg">
<path fill-rule="evenodd" clip-rule="evenodd" d="M20.316 7.54823C19.8088 7.4645 19.2896 7.49001 18.7931 7.62305C18.1263 7.80172 17.4409 7.40599 17.2622 6.73916C17.0835 6.07233 17.4793 5.38691 18.1461 5.20823C18.9863 4.98309 19.865 4.93992 20.7232 5.08162C21.5815 5.22333 22.3996 5.54663 23.1229 6.02991C23.8462 6.51319 24.458 7.14532 24.9173 7.88403C25.3767 8.62274 25.673 9.45101 25.7866 10.3135C25.9001 11.1759 25.8282 12.0526 25.5757 12.8851C25.3232 13.7175 24.8959 14.4864 24.3223 15.1404C24.1534 15.3331 23.9728 15.5145 23.782 15.6837C24.6355 16.1127 25.4233 16.6783 26.1114 17.3664C26.4165 17.6716 26.6977 17.9964 26.9534 18.3379C27.5267 19.1032 27.7967 19.9563 27.7492 20.8171C27.7024 21.6648 27.3537 22.4236 26.8552 23.0363C25.8744 24.2419 24.2297 25 22.5056 25H21.1167C20.4263 25 19.8667 24.4403 19.8667 23.75C19.8667 23.0596 20.4263 22.5 21.1167 22.5H22.5056C23.5428 22.5 24.4496 22.0318 24.916 21.4586C25.1412 21.1818 25.2401 20.9131 25.253 20.6793C25.2651 20.4587 25.207 20.1763 24.9525 19.8366C24.7676 19.5898 24.5644 19.3549 24.3436 19.1342C23.1194 17.91 21.4591 17.2222 19.7278 17.2222C19.0374 17.2222 18.4778 16.6626 18.4778 15.9722C18.4778 15.2819 19.0374 14.7222 19.7278 14.7222C20.2418 14.7222 20.7499 14.6125 21.2181 14.4003C21.6863 14.1882 22.1038 13.8785 22.4427 13.4921C22.7817 13.1056 23.0342 12.6513 23.1834 12.1594C23.3326 11.6675 23.3751 11.1494 23.308 10.6398C23.2409 10.1301 23.0658 9.64071 22.7943 9.2042C22.5229 8.76769 22.1614 8.39416 21.734 8.10858C21.3066 7.82301 20.8231 7.63196 20.316 7.54823ZM10.2778 7.5C8.28339 7.5 6.66665 9.11675 6.66665 11.1111C6.66665 13.1055 8.28341 14.7222 10.2778 14.7222C12.2721 14.7222 13.8889 13.1055 13.8889 11.1111C13.8889 9.11675 12.2721 7.5 10.2778 7.5ZM14.3321 15.6838C15.5938 14.5643 16.3889 12.9305 16.3889 11.1111C16.3889 7.73604 13.6528 5 10.2778 5C6.90268 5 4.16665 7.73604 4.16665 11.1111C4.16665 12.9306 4.96177 14.5643 6.2235 15.6838C5.37003 16.1127 4.58228 16.6783 3.89418 17.3664C3.58902 17.6716 3.30791 17.9964 3.05212 18.3379C2.47883 19.1032 2.20888 19.9563 2.25641 20.8171C2.30322 21.6648 2.65188 22.4236 3.15032 23.0363C4.13119 24.2419 5.77584 25 7.50001 25H13.0556C14.7797 25 16.4244 24.2419 17.4052 23.0363C17.9037 22.4236 18.2523 21.6648 18.2992 20.8171C18.3467 19.9563 18.0767 19.1032 17.5034 18.3379C17.2477 17.9964 16.9665 17.6716 16.6614 17.3664C15.9733 16.6783 15.1855 16.1127 14.3321 15.6838ZM10.2778 17.2222C8.54651 17.2222 6.88614 17.91 5.66195 19.1342C5.44121 19.3549 5.23796 19.5898 5.05305 19.8366C4.79859 20.1763 4.74043 20.4587 4.75261 20.6793C4.76552 20.9131 4.86442 21.1818 5.08958 21.4586C5.55595 22.0318 6.46275 22.5 7.50001 22.5H13.0556C14.0928 22.5 14.9996 22.0318 15.466 21.4586C15.6911 21.1818 15.79 20.9131 15.803 20.6793C15.8151 20.4587 15.757 20.1763 15.5025 19.8366C15.3176 19.5898 15.1144 19.3549 14.8936 19.1342C13.6694 17.91 12.0091 17.2222 10.2778 17.2222Z" fill="#020202"/>
</svg>
