<svg width="30" height="30" viewBox="0 0 30 30" fill="none" xmlns="http://www.w3.org/2000/svg">
<path fill-rule="evenodd" clip-rule="evenodd" d="M20.3159 7.54823C19.8087 7.4645 19.2895 7.49001 18.793 7.62305C18.1262 7.80172 17.4408 7.40599 17.2621 6.73916C17.0834 6.07233 17.4792 5.38691 18.146 5.20823C18.9862 4.98309 19.8649 4.93992 20.7231 5.08162C21.5814 5.22333 22.3995 5.54663 23.1228 6.02991C23.8461 6.51319 24.4579 7.14532 24.9172 7.88403C25.3766 8.62274 25.673 9.45101 25.7865 10.3135C25.9 11.1759 25.8281 12.0526 25.5756 12.8851C25.3231 13.7175 24.8958 14.4864 24.3222 15.1404C24.1533 15.3331 23.9727 15.5145 23.7819 15.6837C24.6354 16.1127 25.4232 16.6783 26.1113 17.3664C26.4165 17.6716 26.6976 17.9964 26.9534 18.3379C27.5266 19.1032 27.7966 19.9563 27.7491 20.8171C27.7023 21.6648 27.3536 22.4236 26.8552 23.0363C25.8743 24.2419 24.2296 25 22.5055 25H21.1166C20.4262 25 19.8666 24.4403 19.8666 23.75C19.8666 23.0596 20.4262 22.5 21.1166 22.5H22.5055C23.5427 22.5 24.4495 22.0318 24.9159 21.4586C25.1411 21.1818 25.24 20.9131 25.2529 20.6793C25.2651 20.4587 25.2069 20.1763 24.9524 19.8366C24.7675 19.5898 24.5643 19.3549 24.3435 19.1342C23.1193 17.91 21.459 17.2222 19.7277 17.2222C19.0373 17.2222 18.4777 16.6626 18.4777 15.9722C18.4777 15.2819 19.0373 14.7222 19.7277 14.7222C20.2417 14.7222 20.7498 14.6125 21.218 14.4003C21.6862 14.1882 22.1037 13.8785 22.4426 13.4921C22.7816 13.1056 23.0341 12.6513 23.1833 12.1594C23.3325 11.6675 23.375 11.1494 23.3079 10.6398C23.2408 10.1301 23.0657 9.64071 22.7942 9.2042C22.5228 8.76769 22.1613 8.39416 21.7339 8.10858C21.3065 7.82301 20.8231 7.63196 20.3159 7.54823ZM10.2777 7.5C8.2833 7.5 6.66655 9.11675 6.66655 11.1111C6.66655 13.1055 8.28332 14.7222 10.2777 14.7222C12.272 14.7222 13.8888 13.1055 13.8888 11.1111C13.8888 9.11675 12.272 7.5 10.2777 7.5ZM14.332 15.6838C15.5937 14.5643 16.3888 12.9305 16.3888 11.1111C16.3888 7.73604 13.6527 5 10.2777 5C6.90259 5 4.16655 7.73604 4.16655 11.1111C4.16655 12.9306 4.96168 14.5643 6.22341 15.6838C5.36993 16.1127 4.58219 16.6783 3.89409 17.3664C3.58893 17.6716 3.30782 17.9964 3.05203 18.3379C2.47874 19.1032 2.20878 19.9563 2.25632 20.8171C2.30313 21.6648 2.65178 22.4236 3.15023 23.0363C4.1311 24.2419 5.77575 25 7.49991 25H13.0555C14.7796 25 16.4243 24.2419 17.4052 23.0363C17.9036 22.4236 18.2523 21.6648 18.2991 20.8171C18.3466 19.9563 18.0766 19.1032 17.5034 18.3379C17.2476 17.9964 16.9665 17.6716 16.6613 17.3664C15.9732 16.6783 15.1854 16.1127 14.332 15.6838ZM10.2777 17.2222C8.54642 17.2222 6.88605 17.91 5.66185 19.1342C5.44112 19.3549 5.23787 19.5898 5.05296 19.8366C4.7985 20.1763 4.74034 20.4587 4.75252 20.6793C4.76543 20.9131 4.86433 21.1818 5.08949 21.4586C5.55585 22.0318 6.46266 22.5 7.49991 22.5H13.0555C14.0927 22.5 14.9995 22.0318 15.4659 21.4586C15.6911 21.1818 15.79 20.9131 15.8029 20.6793C15.815 20.4587 15.7569 20.1763 15.5024 19.8366C15.3175 19.5898 15.1143 19.3549 14.8935 19.1342C13.6693 17.91 12.009 17.2222 10.2777 17.2222Z" fill="#020202"/>
</svg>
