<svg width="30" height="30" viewBox="0 0 30 30" fill="none" xmlns="http://www.w3.org/2000/svg">
<path fill-rule="evenodd" clip-rule="evenodd" d="M10.2777 7.5C8.2833 7.5 6.66655 9.11675 6.66655 11.1111C6.66655 13.1055 8.28332 14.7222 10.2777 14.7222C12.272 14.7222 13.8888 13.1055 13.8888 11.1111C13.8888 9.11675 12.272 7.5 10.2777 7.5ZM14.332 15.6838C15.5937 14.5643 16.3888 12.9305 16.3888 11.1111C16.3888 7.73604 13.6527 5 10.2777 5C6.90259 5 4.16655 7.73604 4.16655 11.1111C4.16655 12.9306 4.96168 14.5643 6.22341 15.6838C5.36993 16.1127 4.58219 16.6783 3.89409 17.3664C3.58892 17.6716 3.30782 17.9964 3.05203 18.3379C2.47874 19.1032 2.20878 19.9563 2.25632 20.8171C2.30313 21.6648 2.65178 22.4236 3.15023 23.0363C4.1311 24.2419 5.77575 25 7.49991 25L13.0555 25C14.7796 25 16.4243 24.2419 17.4052 23.0363C17.9036 22.4236 18.2523 21.6648 18.2991 20.8171C18.3466 19.9563 18.0766 19.1032 17.5034 18.3379C17.2476 17.9964 16.9665 17.6716 16.6613 17.3664C15.9732 16.6783 15.1854 16.1127 14.332 15.6838ZM10.2777 17.2222C8.54642 17.2222 6.88605 17.91 5.66185 19.1342C5.44112 19.3549 5.23787 19.5898 5.05296 19.8366C4.7985 20.1763 4.74034 20.4587 4.75252 20.6793C4.76543 20.9131 4.86433 21.1818 5.08949 21.4586C5.55585 22.0318 6.46266 22.5 7.49991 22.5L13.0555 22.5C14.0927 22.5 14.9995 22.0318 15.4659 21.4586C15.6911 21.1818 15.79 20.9131 15.8029 20.6793C15.815 20.4587 15.7569 20.1763 15.5024 19.8366C15.3175 19.5898 15.1143 19.3549 14.8935 19.1342C13.6693 17.91 12.009 17.2222 10.2777 17.2222ZM27.1338 11.6161C27.622 12.1043 27.622 12.8957 27.1338 13.3839L23.3838 17.1339C22.8956 17.622 22.1042 17.622 21.616 17.1339L19.741 15.2589C19.2529 14.7707 19.2529 13.9793 19.741 13.4911C20.2292 13.003 21.0206 13.003 21.5088 13.4911L22.4999 14.4822L25.366 11.6161C25.8542 11.128 26.6456 11.128 27.1338 11.6161Z" fill="black"/>
</svg>
