<svg width="56" height="56" viewBox="0 0 56 56" fill="none" xmlns="http://www.w3.org/2000/svg">
<path fill-rule="evenodd" clip-rule="evenodd" d="M4.66667 28C4.66667 15.1134 15.1134 4.66667 28 4.66667C40.8866 4.66667 51.3333 15.1134 51.3333 28C51.3333 35.5416 47.7554 42.2476 42.2044 46.5131C41.2533 43.7102 39.4912 41.2437 37.1314 39.433C34.5118 37.4229 31.302 36.3333 28 36.3333C24.698 36.3333 21.4882 37.4229 18.8686 39.433C16.5088 41.2437 14.7467 43.7102 13.7956 46.5131C8.24459 42.2476 4.66667 35.5416 4.66667 28ZM35.9139 41.0197C38.1145 42.7084 39.7155 45.0551 40.4863 47.7149C36.8758 50.0064 32.5928 51.3333 28 51.3333C23.4072 51.3333 19.1242 50.0064 15.5137 47.7149C16.2845 45.0551 17.8855 42.7084 20.0861 41.0197C22.3565 39.2776 25.1383 38.3333 28 38.3333C30.8618 38.3333 33.6435 39.2776 35.9139 41.0197ZM22 21C22 17.6863 24.6863 15 28 15C31.3137 15 34 17.6863 34 21C34 24.3137 31.3137 27 28 27C24.6863 27 22 24.3137 22 21ZM28 13C23.5817 13 20 16.5817 20 21C20 25.4183 23.5817 29 28 29C32.4183 29 36 25.4183 36 21C36 16.5817 32.4183 13 28 13Z" fill="#222222"/>
<rect x="5.16667" y="5.16667" width="45.6667" height="45.6667" rx="22.8333" stroke="#222222"/>
</svg>
