<svg width="40" height="40" viewBox="0 0 40 40" fill="none" xmlns="http://www.w3.org/2000/svg">
<path fill-rule="evenodd" clip-rule="evenodd" d="M25.076 6.01639C24.183 5.51699 23.1857 5.18432 22.1274 5.05715C21.6519 5 21.1012 5 19.9999 5C18.8986 5 18.348 5 17.8724 5.05715C14.5355 5.45814 11.8051 7.90201 11.0381 11.1742C10.9287 11.6405 10.8679 12.1878 10.7463 13.2824L10.3266 17.0594L10.3266 17.0594C10.1933 18.2592 10.1267 18.8591 9.97297 19.4371C9.88298 19.7755 9.77087 20.1077 9.63736 20.4314C9.40932 20.9843 9.09877 21.5019 8.47767 22.5371L6.8173 25.3043C6.01155 26.6473 5.60867 27.3187 5.8959 27.826C6.18313 28.3333 6.96618 28.3333 8.53229 28.3333H31.4675C33.0336 28.3333 33.8167 28.3333 34.1039 27.826C34.3911 27.3187 33.9883 26.6473 33.1825 25.3043L31.5222 22.5371L31.5221 22.537C30.901 21.5019 30.5905 20.9843 30.3625 20.4314C30.229 20.1077 30.1168 19.7755 30.0268 19.4371C29.8731 18.8591 29.8065 18.2592 29.6732 17.0594L29.5911 16.3203C26.2838 16.1096 23.6666 13.3605 23.6666 10C23.6666 8.49059 24.1946 7.1045 25.076 6.01639ZM27.3745 7.94594C28.1262 8.86789 28.6782 9.96443 28.9618 11.1742C29.0699 11.6357 29.1306 12.1765 29.2498 13.2486C27.77 12.9083 26.6666 11.583 26.6666 10C26.6666 9.22513 26.931 8.51201 27.3745 7.94594Z" fill="#222222"/>
<path d="M15 28.3333C15 28.9899 15.1293 29.6401 15.3806 30.2467C15.6319 30.8534 16.0002 31.4046 16.4645 31.8688C16.9288 32.3331 17.48 32.7014 18.0866 32.9527C18.6932 33.204 19.3434 33.3333 20 33.3333C20.6566 33.3333 21.3068 33.204 21.9134 32.9527C22.52 32.7014 23.0712 32.3331 23.5355 31.8688C23.9998 31.4046 24.3681 30.8534 24.6194 30.2467C24.8707 29.6401 25 28.9899 25 28.3333L20 28.3333H15Z" fill="#222222"/>
<circle cx="30.0001" cy="10" r="3.83333" fill="#222222" stroke="#222222"/>
</svg>
