<svg width="34" height="34" viewBox="0 0 34 34" fill="none" xmlns="http://www.w3.org/2000/svg">
<path fill-rule="evenodd" clip-rule="evenodd" d="M28.3334 15.5833C28.3334 11.604 28.3334 9.61436 27.3784 8.18509C26.965 7.56635 26.4337 7.03509 25.815 6.62166C24.3857 5.66666 22.3961 5.66666 18.4167 5.66666H15.5834C11.6041 5.66666 9.61445 5.66666 8.18518 6.62166C7.56644 7.03509 7.03519 7.56635 6.62175 8.18509C5.66675 9.61436 5.66675 11.604 5.66675 15.5833C5.66675 19.5626 5.66675 21.5523 6.62175 22.9816C7.03519 23.6003 7.56644 24.1316 8.18518 24.545C9.43376 25.3793 11.11 25.4847 14.1667 25.4981V25.5L15.733 28.6324C16.2551 29.6766 17.7451 29.6766 18.2672 28.6324L19.8334 25.5V25.4981C22.8902 25.4847 24.5664 25.3793 25.815 24.545C26.4337 24.1316 26.965 23.6003 27.3784 22.9816C28.3334 21.5523 28.3334 19.5626 28.3334 15.5833ZM12.7501 11.75C12.1978 11.75 11.7501 12.1977 11.7501 12.75C11.7501 13.3023 12.1978 13.75 12.7501 13.75H21.2501C21.8024 13.75 22.2501 13.3023 22.2501 12.75C22.2501 12.1977 21.8024 11.75 21.2501 11.75H12.7501ZM12.7501 17.4167C12.1978 17.4167 11.7501 17.8644 11.7501 18.4167C11.7501 18.9689 12.1978 19.4167 12.7501 19.4167H17.0001C17.5524 19.4167 18.0001 18.9689 18.0001 18.4167C18.0001 17.8644 17.5524 17.4167 17.0001 17.4167H12.7501Z" fill="#222222"/>
</svg>
