<svg width="40" height="40" viewBox="0 0 40 40" fill="none" xmlns="http://www.w3.org/2000/svg">
<path fill-rule="evenodd" clip-rule="evenodd" d="M3.33325 20C3.33325 10.7952 10.7952 3.33331 19.9999 3.33331C29.2047 3.33331 36.6666 10.7952 36.6666 20C36.6666 25.2783 34.2129 29.9835 30.3839 33.0373C29.6792 31.0209 28.4002 29.2472 26.6963 27.9398C24.7752 26.4657 22.4214 25.6666 19.9999 25.6666C17.5784 25.6666 15.2246 26.4657 13.3035 27.9398C11.5996 29.2472 10.3206 31.0209 9.6159 33.0373C5.78693 29.9835 3.33325 25.2783 3.33325 20ZM25.4788 29.5265C27.0236 30.7119 28.1416 32.3657 28.6663 34.2391C26.1411 35.7793 23.1742 36.6666 19.9999 36.6666C16.8257 36.6666 13.8587 35.7793 11.3335 34.2391C11.8582 32.3657 12.9762 30.7119 14.5211 29.5265C16.0929 28.3204 18.0187 27.6666 19.9999 27.6666C21.9811 27.6666 23.907 28.3204 25.4788 29.5265ZM15.9999 15C15.9999 12.7908 17.7908 11 19.9999 11C22.2091 11 23.9999 12.7908 23.9999 15C23.9999 17.2091 22.2091 19 19.9999 19C17.7908 19 15.9999 17.2091 15.9999 15ZM19.9999 8.99998C16.6862 8.99998 13.9999 11.6863 13.9999 15C13.9999 18.3137 16.6862 21 19.9999 21C23.3136 21 25.9999 18.3137 25.9999 15C25.9999 11.6863 23.3136 8.99998 19.9999 8.99998Z" fill="#222222"/>
<rect x="3.83325" y="3.83331" width="32.3333" height="32.3333" rx="16.1667" stroke="#222222"/>
</svg>
