<svg width="34" height="34" viewBox="0 0 34 34" fill="none" xmlns="http://www.w3.org/2000/svg">
<path fill-rule="evenodd" clip-rule="evenodd" d="M0.333374 17C0.333374 7.79524 7.7953 0.333313 17 0.333313C26.2048 0.333313 33.6667 7.79524 33.6667 17C33.6667 22.2783 31.213 26.9835 27.3841 30.0373C26.6794 28.0209 25.4003 26.2472 23.6964 24.9398C21.7753 23.4657 19.4215 22.6666 17 22.6666C14.5786 22.6666 12.2248 23.4657 10.3037 24.9398C8.59976 26.2472 7.32073 28.0209 6.61602 30.0373C2.78706 26.9835 0.333374 22.2783 0.333374 17ZM22.4789 26.5265C24.0237 27.7119 25.1417 29.3657 25.6665 31.2391C23.1413 32.7793 20.1743 33.6666 17 33.6666C13.8258 33.6666 10.8588 32.7793 8.33362 31.2391C8.85835 29.3657 9.97634 27.7119 11.5212 26.5265C13.093 25.3204 15.0188 24.6666 17 24.6666C18.9813 24.6666 20.9071 25.3204 22.4789 26.5265ZM13 12C13 9.79084 14.7909 7.99998 17 7.99998C19.2092 7.99998 21 9.79084 21 12C21 14.2091 19.2092 16 17 16C14.7909 16 13 14.2091 13 12ZM17 5.99998C13.6863 5.99998 11 8.68627 11 12C11 15.3137 13.6863 18 17 18C20.3137 18 23 15.3137 23 12C23 8.68627 20.3137 5.99998 17 5.99998Z" fill="#222222"/>
</svg>
