<svg width="100" height="100" viewBox="0 0 100 100" fill="none" xmlns="http://www.w3.org/2000/svg">
<path fill-rule="evenodd" clip-rule="evenodd" d="M34.2592 25C27.6113 25 22.2221 30.3892 22.2221 37.0371C22.2221 43.6849 27.6113 49.0741 34.2593 49.0741C40.9071 49.0741 46.2962 43.685 46.2962 37.0371C46.2962 30.3892 40.907 25 34.2592 25ZM47.7735 52.2793C51.9792 48.5476 54.6295 43.1019 54.6295 37.0371C54.6295 25.7868 45.5094 16.6667 34.2592 16.6667C23.0089 16.6667 13.8888 25.7868 13.8888 37.0371C13.8888 43.1019 16.5392 48.5476 20.745 52.2793C17.9001 53.7091 15.2743 55.5943 12.9806 57.888C11.9634 58.9052 11.0263 59.9879 10.1737 61.1262C8.26276 63.6775 7.3629 66.5209 7.52135 69.3905C7.67737 72.2159 8.83957 74.7455 10.5011 76.7877C13.7706 80.8064 19.2528 83.3333 25 83.3333H43.5185C49.2658 83.3333 54.7479 80.8064 58.0175 76.7877C59.6789 74.7455 60.8411 72.2159 60.9972 69.3905C61.1556 66.5209 60.2557 63.6775 58.3448 61.1262C57.4922 59.9879 56.5551 58.9052 55.5379 57.888C53.2442 55.5943 50.6184 53.7091 47.7735 52.2793ZM34.2593 57.4074C28.4883 57.4074 22.9538 59.6999 18.8731 63.7805C18.1373 64.5163 17.4598 65.2992 16.8435 66.1221C15.9953 67.2545 15.8014 68.1956 15.842 68.931C15.8851 69.7104 16.2147 70.606 16.9653 71.5285C18.5198 73.4393 21.5425 75 25 75L43.5185 75C46.9761 75 49.9987 73.4393 51.5533 71.5286C52.3038 70.606 52.6335 69.7105 52.6765 68.931C52.7171 68.1956 52.5232 67.2545 51.675 66.1221C51.0587 65.2992 50.3812 64.5163 49.6454 63.7805C45.5647 59.6999 40.0302 57.4074 34.2593 57.4074ZM90.4463 38.7204C92.0734 40.3476 92.0734 42.9858 90.4463 44.613L77.9463 57.113C76.3191 58.7402 73.6809 58.7402 72.0537 57.113L65.8037 50.863C64.1765 49.2358 64.1765 46.5976 65.8037 44.9704C67.4309 43.3432 70.0691 43.3432 71.6963 44.9704L75 48.2741L84.5537 38.7204C86.1809 37.0932 88.8191 37.0932 90.4463 38.7204Z" fill="black"/>
</svg>
