<svg width="150" height="106" viewBox="0 0 100 106" fill="none" xmlns="http://www.w3.org/2000/svg">
<path fill-rule="evenodd" clip-rule="evenodd" d="M67.7199 26.5282C66.0294 26.2339 64.2988 26.3236 62.6437 26.7911C60.421 27.4191 58.1362 26.0283 57.5406 23.6847C56.9451 21.3411 58.2642 18.9322 60.4869 18.3043C63.2877 17.513 66.2165 17.3613 69.0774 17.8593C71.9383 18.3573 74.6654 19.4936 77.0763 21.1921C79.4873 22.8906 81.5265 25.1122 83.0577 27.7084C84.5889 30.3045 85.5768 33.2155 85.9553 36.2465C86.3337 39.2776 86.0941 42.3589 85.2524 45.2845C84.4107 48.2101 82.9863 50.9125 81.0744 53.211C80.5112 53.8881 79.9094 54.5257 79.2733 55.1204C82.1183 56.6279 84.7442 58.6156 87.0379 61.034C88.0551 62.1065 88.9922 63.2481 89.8448 64.4483C91.7558 67.1382 92.6556 70.1362 92.4972 73.1616C92.3412 76.1406 91.179 78.8077 89.5175 80.9609C86.2479 85.198 80.7658 87.8623 75.0185 87.8623H70.3889C68.0877 87.8623 66.2222 85.8954 66.2222 83.4692C66.2222 81.0429 68.0877 79.076 70.3889 79.076H75.0185C78.4761 79.076 81.4987 77.4305 83.0533 75.4159C83.8038 74.4433 84.1335 73.499 84.1765 72.6772C84.2171 71.9019 84.0232 70.9096 83.175 69.7157C82.5587 68.8481 81.8812 68.0226 81.1454 67.2468C77.0647 62.9444 71.5302 60.5273 65.7593 60.5273C63.4581 60.5273 61.5926 58.5605 61.5926 56.1342C61.5926 53.708 63.4581 51.7411 65.7593 51.7411C67.4727 51.7411 69.1662 51.3554 70.7269 50.6099C72.2876 49.8643 73.6794 48.776 74.8091 47.4178C75.9388 46.0596 76.7805 44.4627 77.2779 42.734C77.7753 41.0052 77.9169 39.1845 77.6932 37.3934C77.4696 35.6023 76.8858 33.8822 75.981 32.3481C75.0762 30.814 73.8712 29.5012 72.4466 28.4975C71.0219 27.4939 69.4105 26.8225 67.7199 26.5282ZM34.2592 26.3587C27.6113 26.3587 22.2221 32.0407 22.2221 39.0499C22.2221 46.059 27.6113 51.7411 34.2593 51.7411C40.9071 51.7411 46.2962 46.0591 46.2962 39.0499C46.2962 32.0407 40.907 26.3587 34.2592 26.3587ZM47.7735 55.1205C51.9792 51.186 54.6295 45.4443 54.6295 39.0499C54.6295 27.1882 45.5094 17.5724 34.2592 17.5724C23.0089 17.5724 13.8888 27.1882 13.8888 39.0499C13.8888 45.4443 16.5392 51.1861 20.745 55.1205C17.9001 56.6281 15.2743 58.6157 12.9806 61.034C11.9634 62.1065 11.0263 63.2481 10.1737 64.4483C8.26276 67.1382 7.3629 70.1362 7.52135 73.1616C7.67737 76.1406 8.83957 78.8077 10.5011 80.9609C13.7706 85.198 19.2528 87.8623 25 87.8623H43.5185C49.2658 87.8623 54.7479 85.198 58.0175 80.9609C59.6789 78.8077 60.8411 76.1406 60.9972 73.1616C61.1556 70.1362 60.2557 67.1382 58.3448 64.4483C57.4922 63.2481 56.5551 62.1065 55.5379 61.034C53.2442 58.6157 50.6184 56.6281 47.7735 55.1205ZM34.2593 60.5273C28.4883 60.5273 22.9538 62.9444 18.8731 67.2468C18.1373 68.0226 17.4598 68.848 16.8435 69.7156C15.9953 70.9096 15.8014 71.9019 15.842 72.6772C15.885 73.499 16.2147 74.4433 16.9653 75.4159C18.5198 77.4305 21.5425 79.076 25 79.076H43.5185C46.9761 79.076 49.9987 77.4305 51.5533 75.4159C52.3038 74.4433 52.6335 73.499 52.6765 72.6772C52.7171 71.9019 52.5232 70.9096 51.675 69.7157C51.0587 68.8481 50.3812 68.0226 49.6454 67.2468C45.5647 62.9444 40.0302 60.5273 34.2593 60.5273Z" fill="#020202"/>
</svg>
