<svg width="40" height="40" viewBox="0 0 40 40" fill="none" xmlns="http://www.w3.org/2000/svg">
<path fill-rule="evenodd" clip-rule="evenodd" d="M3.33331 20C3.33331 10.7953 10.7952 3.33337 20 3.33337C29.2047 3.33337 36.6666 10.7953 36.6666 20C36.6666 25.2784 34.213 29.9836 30.384 33.0373C29.6793 31.021 28.4003 29.2473 26.6964 27.9398C24.7753 26.4657 22.4215 25.6667 20 25.6667C17.5785 25.6667 15.2247 26.4657 13.3036 27.9398C11.5997 29.2473 10.3207 31.021 9.61596 33.0373C5.78699 29.9836 3.33331 25.2784 3.33331 20ZM25.4788 29.5265C27.0237 30.7119 28.1417 32.3658 28.6664 34.2391C26.1412 35.7793 23.1742 36.6667 20 36.6667C16.8257 36.6667 13.8588 35.7793 11.3336 34.2391C11.8583 32.3658 12.9763 30.7119 14.5211 29.5265C16.0929 28.3204 18.0188 27.6667 20 27.6667C21.9812 27.6667 23.907 28.3204 25.4788 29.5265ZM16 15C16 12.7909 17.7908 11 20 11C22.2091 11 24 12.7909 24 15C24 17.2092 22.2091 19 20 19C17.7908 19 16 17.2092 16 15ZM20 9.00004C16.6863 9.00004 14 11.6863 14 15C14 18.3137 16.6863 21 20 21C23.3137 21 26 18.3137 26 15C26 11.6863 23.3137 9.00004 20 9.00004Z" fill="#222222"/>
<rect x="3.83331" y="3.83337" width="32.3333" height="32.3333" rx="16.1667" stroke="#222222"/>
</svg>
