<svg width="30" height="30" viewBox="0 0 30 30" fill="none" xmlns="http://www.w3.org/2000/svg">
<path fill-rule="evenodd" clip-rule="evenodd" d="M20.316 7.54823C19.8089 7.4645 19.2897 7.49001 18.7932 7.62305C18.1263 7.80172 17.4409 7.40599 17.2622 6.73916C17.0836 6.07233 17.4793 5.38691 18.1461 5.20823C18.9864 4.98309 19.865 4.93992 20.7233 5.08162C21.5815 5.22333 22.3997 5.54663 23.1229 6.02991C23.8462 6.51319 24.458 7.14532 24.9174 7.88403C25.3767 8.62274 25.6731 9.45101 25.7866 10.3135C25.9002 11.1759 25.8283 12.0526 25.5758 12.8851C25.3232 13.7175 24.8959 14.4864 24.3224 15.1404C24.1534 15.3331 23.9729 15.5145 23.782 15.6837C24.6355 16.1127 25.4233 16.6783 26.1114 17.3664C26.4166 17.6716 26.6977 17.9964 26.9535 18.3379C27.5268 19.1032 27.7967 19.9563 27.7492 20.8171C27.7024 21.6648 27.3537 22.4236 26.8553 23.0363C25.8744 24.2419 24.2298 25 22.5056 25H21.1167C20.4264 25 19.8667 24.4403 19.8667 23.75C19.8667 23.0596 20.4264 22.5 21.1167 22.5H22.5056C23.5429 22.5 24.4497 22.0318 24.916 21.4586C25.1412 21.1818 25.2401 20.9131 25.253 20.6793C25.2652 20.4587 25.207 20.1763 24.9526 19.8366C24.7676 19.5898 24.5644 19.3549 24.3437 19.1342C23.1195 17.91 21.4591 17.2222 19.7278 17.2222C19.0375 17.2222 18.4778 16.6626 18.4778 15.9722C18.4778 15.2819 19.0375 14.7222 19.7278 14.7222C20.2418 14.7222 20.7499 14.6125 21.2181 14.4003C21.6863 14.1882 22.1038 13.8785 22.4428 13.4921C22.7817 13.1056 23.0342 12.6513 23.1834 12.1594C23.3326 11.6675 23.3751 11.1494 23.308 10.6398C23.2409 10.1301 23.0658 9.64071 22.7944 9.2042C22.5229 8.76769 22.1614 8.39416 21.734 8.10858C21.3066 7.82301 20.8232 7.63196 20.316 7.54823ZM10.2778 7.5C8.28343 7.5 6.66668 9.11675 6.66668 11.1111C6.66668 13.1055 8.28344 14.7222 10.2778 14.7222C12.2722 14.7222 13.8889 13.1055 13.8889 11.1111C13.8889 9.11675 12.2721 7.5 10.2778 7.5ZM14.3321 15.6838C15.5938 14.5643 16.3889 12.9305 16.3889 11.1111C16.3889 7.73604 13.6529 5 10.2778 5C6.90271 5 4.16668 7.73604 4.16668 11.1111C4.16668 12.9306 4.96181 14.5643 6.22353 15.6838C5.37006 16.1127 4.58231 16.6783 3.89421 17.3664C3.58905 17.6716 3.30794 17.9964 3.05215 18.3379C2.47886 19.1032 2.20891 19.9563 2.25644 20.8171C2.30325 21.6648 2.65191 22.4236 3.15036 23.0363C4.13122 24.2419 5.77587 25 7.50004 25H13.0556C14.7798 25 16.4244 24.2419 17.4053 23.0363C17.9037 22.4236 18.2524 21.6648 18.2992 20.8171C18.3467 19.9563 18.0768 19.1032 17.5035 18.3379C17.2477 17.9964 16.9666 17.6716 16.6614 17.3664C15.9733 16.6783 15.1856 16.1127 14.3321 15.6838ZM10.2778 17.2222C8.54654 17.2222 6.88617 17.91 5.66198 19.1342C5.44124 19.3549 5.23799 19.5898 5.05308 19.8366C4.79862 20.1763 4.74046 20.4587 4.75264 20.6793C4.76555 20.9131 4.86445 21.1818 5.08961 21.4586C5.55598 22.0318 6.46278 22.5 7.50004 22.5H13.0556C14.0929 22.5 14.9997 22.0318 15.466 21.4586C15.6912 21.1818 15.7901 20.9131 15.803 20.6793C15.8152 20.4587 15.757 20.1763 15.5025 19.8366C15.3176 19.5898 15.1144 19.3549 14.8936 19.1342C13.6695 17.91 12.0091 17.2222 10.2778 17.2222Z" fill="#020202"/>
</svg>
