<svg width="66" height="66" viewBox="0 0 66 66" fill="none" xmlns="http://www.w3.org/2000/svg">
<path d="M36.7786 1.38652C34.6583 -0.462173 31.3417 -0.462173 29.2214 1.38652L2.58214 24.6142C0.9339 26.0514 0 28.051 0 30.1428V58.3916C0 62.5935 3.69363 66 8.25 66H16.5C21.0564 66 24.75 62.5935 24.75 58.3916V45.7109C24.75 44.3104 25.9812 43.1749 27.5 43.1749H38.5C40.0188 43.1749 41.25 44.3104 41.25 45.7109V58.3916C41.25 62.5935 44.9438 66 49.5 66H57.75C62.3062 66 66 62.5935 66 58.3916V30.1428C66 28.051 65.0661 26.0514 63.4178 24.6142L36.7786 1.38652Z" fill="#EEE4E4"/>
</svg>
